<svg id="Layer_1" data-name="Layer 1" xmlns="http://www.w3.org/2000/svg" viewBox="0 0 463.33 336.84"><defs><style>.cls-1{fill:#022ca2;}</style></defs><path class="cls-1" d="M215.27,174.09A14.06,14.06,0,0,1,202,183.43c-8.09,0-14.42-6.46-14.42-15s6.29-15,14.42-15a14,14,0,0,1,13.26,9.38l-3,1A11,11,0,0,0,202,156.46c-6.29,0-11.13,5.17-11.13,12s4.84,12,11.13,12A11,11,0,0,0,212.27,173Z"/><path class="cls-1" d="M233.9,153.83,246.58,183h-3.42l-2.75-6.34H223.86L221.15,183h-3.42l12.63-29.18Zm-8.75,19.8h14l-7-16.26Z"/><path class="cls-1" d="M251.79,153.83h11c8.71,0,13.59,6.17,13.59,14.59S271.47,183,262.8,183h-11Zm3.17,3V180h7.59c7.08,0,10.58-4.84,10.58-11.55s-3.46-11.55-10.58-11.55Z"/><path class="cls-1" d="M283.56,183V153.83h3.16l11.59,20.55L310,153.83h3.16V183H310V160l-10.3,18.22H297L286.72,160v23Z"/><path class="cls-1" d="M334.75,153.41c8.26,0,14.55,6.46,14.55,15s-6.29,15-14.55,15-14.59-6.46-14.59-15S326.46,153.41,334.75,153.41Zm0,27c6.38,0,11.26-5.17,11.26-12s-4.88-12-11.26-12-11.3,5.17-11.3,12S328.33,180.39,334.75,180.39Z"/><path class="cls-1" d="M357.56,174.88c.45,3.84,3.79,5.59,8.42,5.59s7.5-1.88,7.5-4.8c0-3.58-4.17-4.54-8.67-5.83-4.71-1.38-10.09-3.05-10.09-8.76,0-4.67,4-7.67,10.3-7.67,6.17,0,10.92,2.84,10.92,8.38v.46h-3.13V162c0-3.79-3.25-5.63-7.83-5.63s-7,1.84-7,4.76c0,3.46,3.55,4.5,7.84,5.75,5.88,1.71,10.88,3.25,10.88,8.71,0,5-4.17,7.8-10.84,7.8-6.25,0-10.84-2.63-11.46-7.67Z"/><path class="cls-1" d="M102.67,150.64a30.46,30.46,0,0,1,4.51-4.11,73.67,73.67,0,0,0-2.56,10.28s2-.77,2.76-1.06A73.48,73.48,0,0,1,110.77,144l1.21-3-2.93,1.41a29.28,29.28,0,0,0-8.18,6.5A35.18,35.18,0,0,0,92,171.13c.57-.73,2.43-3.34,2.93-3.88A31.6,31.6,0,0,1,102.67,150.64Z"/><path class="cls-1" d="M162.85,148l-6.36-14.74,4.61-4-1.65-1.92-4.9,4.21L152,129.43l-4.28,4.95.91,2.29-.56.47a12.39,12.39,0,0,0-23.41-1.92.3.3,0,0,0,0,.1l5,2.75a9.08,9.08,0,0,1,16,1.19l-1.9,1.63a6.28,6.28,0,0,0-.27-.59,6.86,6.86,0,0,0-12.76,4.8l-1.49,0,1.89,3.7,5.09-2.59,2.8,5.48,1.46-4L139,144.94l-5.7.11a3.62,3.62,0,0,1-.13-.35,4.33,4.33,0,0,1,8-3.25,4.39,4.39,0,0,1,.46,2.3L141,146l4.25,1.2.69-2.44-1.82-.51c0-.14,0-.27,0-.4l5.44-4.67.26.66,1.57.2,1,5.66-3.85,2.58-4.35.41-15.05,11.48-.12-3.31,4.26-3.66-1.18-2.32-3.19,2.74-.09-2.57-3.08,1.18a5.06,5.06,0,0,0-3.24,4.5l-.11,2.49-17,14.57a3.42,3.42,0,0,1-.07-2.7,4.63,4.63,0,0,1,3-2.84l.4-.11.25-.32c3.37-4.19-.15-9.49-.3-9.71l-.52-.77-.89.27a13.57,13.57,0,0,0-4.32,2.12,8.49,8.49,0,0,0-1.38,2.25,15.48,15.48,0,0,1-1.14,2l-.38.33c-2.52,2.21-5.42,5.07-5.55,7.64-.15,3-3.93,8-5.38,9.75l-2.55,3L93.32,183a22.55,22.55,0,0,0,1.05,10.18l.72,2.11,1.44-1.7a7.9,7.9,0,0,1,1.63-1.44,19.38,19.38,0,0,0,3,8l1.32,1.93.89-2.16a8.1,8.1,0,0,1,1-1.68,19.38,19.38,0,0,0,4.52,7l1.68,1.62.44-2.3a7.59,7.59,0,0,1,.65-1.94,19.39,19.39,0,0,0,6.17,5.73l2,1.15-.14-2.33a12.3,12.3,0,0,1,.05-2.14,19.14,19.14,0,0,0,7.34,3.54l2.28.52-.81-2.19a8.28,8.28,0,0,1-.51-2.75c15.71-1.45,23.35-12.92,25.35-16.46,8.38-14.88,2.14-28.72.87-31.23ZM125,156.82a2.5,2.5,0,0,1,1.38-2.14l.38,10.45,18.36-14,4.26-.4,5.74-3.85-1.53-9.12-2-.25-1-2.63,1.65-1.9.32.27-.33.29c-.84.7.83,2.65,1.65,1.91l.56-.48,5.36,12.44-6.79,6.74-1.12-2-.19,4.5c0,.14-.66,12.91-12,18.09a8.62,8.62,0,0,0-1.19-1.22l-2.18-9.92-9.26,5.85-1.81-1.33a1.76,1.76,0,0,1-.72-1.51Zm10.59,15a14,14,0,0,0-6.77-.45l5.85-3.7Zm-11.79-1.65,2.43,1.79-.5.17-1.36.49.67,1.28c0,.06,3.29,6.39,1.36,10.55-1.69,3.64-5.47,4.19-7.58,4.19a7.16,7.16,0,0,1-5.69-2.5,5.65,5.65,0,0,1-1.28-4.15,1.71,1.71,0,0,1,.22-.53,7.13,7.13,0,0,1,4.82-1.21l.92.17.43-.83c1.47-2.83-.4-5.89-.49-6l-.54-.87-1,.35s-5.4,2-7,2.51a2.72,2.72,0,0,1-1.86-.07l14.88-12.79-.16,3.81A4.31,4.31,0,0,0,123.83,170.13Zm27.41,16.29a30.2,30.2,0,0,1-24.39,15.26l-.95.06-.21.93a9,9,0,0,0,0,2.79,17.39,17.39,0,0,1-5.77-3.73l-1.48-1.58-.65,2.06a13.57,13.57,0,0,0-.49,2.67,17.22,17.22,0,0,1-4.39-5.17l-.79-1.58-1.24,1.25a8.73,8.73,0,0,0-1.59,2.44,17.4,17.4,0,0,1-3-6.19l-.39-1.81-1.55,1a8.48,8.48,0,0,0-2,2.07,17.35,17.35,0,0,1-1.72-6.68l0-1.66-1.59.45a8.94,8.94,0,0,0-2.7,1.43,18.6,18.6,0,0,1,0-8.77l.66-2.14-3.51.88c1.65-2.36,3.61-5.69,3.74-8.33,0-.84.89-2.54,4.68-5.86l.45-.4a11.09,11.09,0,0,0,1.67-2.72,13.73,13.73,0,0,1,.86-1.56,8.77,8.77,0,0,1,2.36-1.22c.61,1.24,1.47,3.65.18,5.59A7.18,7.18,0,0,0,103,170.2a5.79,5.79,0,0,0,.56,5.35l1-.71-1,.72c.1.15,2.54,3.58,6.41,2.37,1.25-.39,4.4-1.53,6.08-2.14a3.89,3.89,0,0,1,.22,1.83h-.06a10.3,10.3,0,0,0-5.52,1.71,3,3,0,0,0-1.12,1.58l-.09,0c0,.2-.07.39-.09.58a10.8,10.8,0,0,0-.26,1.4l-2.87-2.06-3.19,2.8-3.78-1.92,3,6,4.15-3.64,4.41,3.16c.12.17.24.34.37.5a9.76,9.76,0,0,0,7.65,3.43c4.61,0,8.21-2.06,9.88-5.66,1.83-4,.22-9-.78-11.38,2.46-.57,7.72-1.2,10.33,2.87l.56.88,1-.39c9-3.64,12.43-11.24,13.71-16.16A31.29,31.29,0,0,1,151.24,186.42Z"/></svg>